# xmcd CD database file
#
# Track frame offsets:
#	150
#	26084
#	45908
#	72113
#	118257
#	136974
#	153604
#	181117
#	203665
#	227857
#
# Disc length: 3377 seconds
#
# Revision: 0
# Processed by: cddbd v1.4PL0 Copyright (c) Steve Scherf et al.
# Submitted via: CDex 1.50beta10
#
DISCID=830d2f0a
DTITLE=Bob Dylan - Looking For Maurice Chevalier's Passport In Americ Disc Three
DYEAR=2002
DGENRE=Blues
TTITLE0=Seeing The Real You At Last
TTITLE1=Bye And Bye
TTITLE2=Tombstone Blues
TTITLE3=Queen Jane Approximately
TTITLE4=Yea Heavy And A Bottle Of Bread
TTITLE5=In The Summertime
TTITLE6=Never Gonna Be The Same Again
TTITLE7=The Man In Me
TTITLE8=Po' Boy
TTITLE9=Ring Them Bells
EXTD=YEAR: 2002
EXTT0=
EXTT1=
EXTT2=
EXTT3=
EXTT4=
EXTT5=
EXTT6=
EXTT7=
EXTT8=
EXTT9=
PLAYORDER=
